<svg width="24px" height="24px" viewBox="-8 -8 54 54" class="nice-btn-wechat-icon" fill="rgba(0,0,0,0.65)"
	xmlns="http://www.w3.org/2000/svg"
	xmlns:xlink="http://www.w3.org/1999/xlink">
	<g>
		<g>
			<path fill="#07C060" d="M38.7,15.3c-3.7-4.9-10.2-6.2-16.1-4.1c0.2,0.1,0.4,0.1,0.6,0.2c8.7,2.9,13.3,12.3,10.4,21 c-0.8,2.3-2,4.3-3.5,6c1.9-0.5,3.8-1.3,5.4-2.5C42.1,30.8,43.4,21.4,38.7,15.3z"></path>
		</g>
		<g>
			<path fill="#07C060" d="M 17 10.4 L 17 10.4 C 17 10.4 17 10.4 17 10.4 c 0.4 -0.3 0.7 -0.5 1.2 -0.8 c 0.4 -0.3 0.7 -0.5 1.1 -0.7 c 0.8 -0.4 1.6 -0.7 2.4 -1 c 0.4 -0.15 0.8 -0.3 1.2 -0.4 c 0.4 -0.08 0.8 -0.15 1.2 -0.2 c 0.4 -0.075 0.9 -0.12 1.3 -0.15 c 0.5 -0.05 1 -0.08 1.5 -0.05 c 0.5 0 0.9 0.05 1.4 0.1 c 2 0.1 5.2 0.5 5.6 0.7 c -0.2 -0.4 -0.4 -0.7 -0.4 -0.7 C 30.6 2.7 25.8 0 20.6 0 c -3.1 0 -7.9 1.1 -11.5 5.4 c -2.4 2.9 -3.2 6.3 -2.7 9.7 c 0.3 2.3 1.6 5.4 3.5 7.3 C 10.6 17.5 13.2 13.2 17 10.4 z"></path>
		</g>
		<g>
			<path fill="#07C060" d="M 20.6 30.9 c -1.3 0 -2.6 -0.2 -3.8 -0.4 c -0.1 0 -0.3 0 -0.5 0 c -0.4 0 -0.7 0.1 -1 0.3 l -4 2.6 c -0.15 0.03 -0.2 0.03 -0.4 0 c -0.3 -0.05 -0.6 -0.3 -0.71 -0.6 c -0.1 -0.2 -0.1 -0.3 -0.1 -0.5 c 0 -0.4 0.7 -2.4 0.7 -3.2 c 0.01 -0.2 0.01 -0.2 0 -0.4 c 0 -0.4 -0.2 -0.8 -0.6 -1 c -4.3 -2.9 -7.2 -7.5 -7.8 -12.2 c -1.1 1.7 -1.6 3 -2.2 5 c -2.1 7.3 2.5 16 9.9 18.4 c 8.6 2.8 16.7 -0.3 19.5 -7.6 c 0.3 -0.9 0.7 -2.4 0.8 -3.6 C 27.7 29.9 24.6 30.9 20.6 30.9 z"></path>
		</g>
	</g>
</svg>