<svg width="256" height="256" viewBox="0 0 256 256" xmlns="http://www.w3.org/2000/svg">
  <rect width="256" height="256" fill="#1E90FF" />
  <text x="75" y="115" text-anchor="middle" font-family="Arial" font-size="100" fill="#ffffff">颜</text>
	<path d="m 155 50 l 70 0 c 10 0 10 10 10 10 c 0 10 -10 10 -10 10 l -70 0 c 0 0 -10 0 -10 -10 c 0 -10 10 -10 10 -10" fill="#ffffff"/>
	<path d="m 155 100 l 70 0 c 10 0 10 10 10 10 c 0 10 -10 10 -10 10 l -70 0 c 0 0 -10 0 -10 -10 c 0 -10 10 -10 10 -10" fill="#ffffff"/>
	<path d="m 35 150 l 190 0 c 10 0 10 10 10 10 c 0 10 -10 10 -10 10 l -190 0 c 0 0 -10 0 -10 -10 c 0 -10 10 -10 10 -10" fill="#ffffff"/>
	<path d="m 35 200 l 190 0 c 10 0 10 10 10 10 c 0 10 -10 10 -10 10 l -190 0 c 0 0 -10 0 -10 -10 c 0 -10 10 -10 10 -10" fill="#ffffff"/>
</svg>