<?xml version="1.0" encoding="UTF-8"?>
<svg xmlns="http://www.w3.org/2000/svg" xmlns:xlink="http://www.w3.org/1999/xlink" width="24px" height="24px" viewBox="0 0 24 24" version="1.1">
<g id="surface1">
<path style=" stroke:none;fill-rule:nonzero;fill:rgb(2.745098%,75.294118%,37.647059%);fill-opacity:1;" d="M 22.113281 9.3125 C 20 6.515625 16.285156 5.769531 12.914062 6.972656 C 13.027344 7.027344 13.144531 7.027344 13.257812 7.085938 C 18.230469 8.742188 20.855469 14.113281 19.199219 19.085938 C 18.742188 20.398438 18.058594 21.542969 17.199219 22.515625 C 18.285156 22.230469 19.371094 21.769531 20.285156 21.085938 C 24.058594 18.171875 24.800781 12.800781 22.113281 9.3125 Z M 22.113281 9.3125 "/>
<path style=" stroke:none;fill-rule:nonzero;fill:rgb(2.745098%,75.294118%,37.647059%);fill-opacity:1;" d="M 9.714844 6.515625 C 9.941406 6.34375 10.113281 6.230469 10.398438 6.058594 C 10.628906 5.886719 10.800781 5.769531 11.027344 5.65625 C 11.484375 5.429688 11.941406 5.257812 12.398438 5.085938 C 12.628906 5 12.855469 4.914062 13.085938 4.855469 C 13.3125 4.8125 13.542969 4.769531 13.769531 4.742188 C 14 4.699219 14.285156 4.675781 14.515625 4.65625 C 14.800781 4.628906 15.085938 4.613281 15.371094 4.628906 C 15.65625 4.628906 15.886719 4.65625 16.171875 4.6875 C 17.3125 4.742188 19.144531 4.972656 19.371094 5.085938 C 19.257812 4.855469 19.144531 4.6875 19.144531 4.6875 C 17.484375 2.113281 14.742188 0.570312 11.769531 0.570312 C 10 0.570312 7.257812 1.199219 5.199219 3.65625 C 3.828125 5.3125 3.371094 7.257812 3.65625 9.199219 C 3.828125 10.515625 4.570312 12.285156 5.65625 13.371094 C 6.058594 10.570312 7.542969 8.113281 9.714844 6.515625 Z M 9.714844 6.515625 "/>
<path style=" stroke:none;fill-rule:nonzero;fill:rgb(2.745098%,75.294118%,37.647059%);fill-opacity:1;" d="M 11.769531 18.230469 C 11.027344 18.230469 10.285156 18.113281 9.601562 18 C 9.542969 18 9.429688 18 9.3125 18 C 9.085938 18 8.914062 18.058594 8.742188 18.171875 L 6.457031 19.65625 C 6.371094 19.675781 6.34375 19.675781 6.230469 19.65625 C 6.058594 19.628906 5.886719 19.484375 5.824219 19.3125 C 5.765625 19.199219 5.765625 19.144531 5.765625 19.027344 C 5.765625 18.800781 6.164062 17.65625 6.164062 17.199219 C 6.171875 17.085938 6.171875 17.085938 6.164062 16.972656 C 6.164062 16.742188 6.050781 16.515625 5.824219 16.398438 C 3.367188 14.742188 1.707031 12.113281 1.367188 9.429688 C 0.738281 10.398438 0.453125 11.144531 0.109375 12.285156 C -1.089844 16.457031 1.539062 21.429688 5.765625 22.800781 C 10.679688 24.398438 15.308594 22.628906 16.910156 18.457031 C 17.078125 17.941406 17.308594 17.085938 17.367188 16.398438 C 15.828125 17.65625 14.058594 18.230469 11.769531 18.230469 Z M 11.769531 18.230469 "/>
</g>
</svg>
